# AST/ASF file generated using VICON BodyLanguage
# -----------------------------------------------
:version 1.10
:name VICON
:units
  mass 1.0
  length 0.45
  angle deg
:documentation
   .ast/.asf automatically generated from VICON data using
   VICON BodyBuilder and BodyLanguage model FoxedUp or BRILLIANT.MOD
:root
   order TX TY TZ RX RY RZ
   axis XYZ
   position 0 0 0  
   orientation 0 0 0 
:bonedata
  begin
     id 1 
     name lhipjoint
     direction 0.561145 -0.797705 0.220866 
     length 2.46425 
     axis 0 0 0  XYZ
  end
  begin
     id 2 
     name lfemur
     direction 0.34202 -0.939693 0  
     length 7.95556  
     axis 0 0 20  XYZ
    dof rx ry rz
    limits (-160.0 20.0)
           (-70.0 70.0)
           (-60.0 70.0)
  end
  begin
     id 3 
     name ltibia
     direction 0.34202 -0.939693 0   
     length 7.9832   
     axis 0 0 20   XYZ
    dof rx
    limits (-10.0 170.0)
  end
  begin
     id 4 
     name lfoot
     direction 0.0723927 -0.198897 0.977343   
     length 2.23085   
     axis -90 7.62852e-016 20   XYZ
    dof rx rz
    limits (-45.0 90.0)
           (-70.0 20.0)
  end
  begin
     id 5 
     name ltoes
     direction 1.53826e-011 -4.21988e-011 1   
     length 1.12127   
     axis -90 7.62852e-016 20   XYZ
    dof rx
    limits (-90.0 20.0)
  end
  begin
     id 6 
     name rhipjoint
     direction -0.610499 -0.763299 0.21134   
     length 2.57533  
     axis 0 0 0  XYZ 
  end
  begin
     id 7 
     name rfemur
     direction -0.34202 -0.939693 0   
     length 8.65257   
     axis 0 0 -20   XYZ
    dof rx ry rz
    limits (-160.0 20.0)
           (-70.0 70.0)
           (-70.0 60.0)
  end
  begin
     id 8 
     name rtibia
     direction -0.342021 -0.939692 0   
     length 7.37807   
     axis 0 0 -20   XYZ
    dof rx
    limits (-10.0 170.0)
 end
 begin
     id 9 
     name rfoot
     direction -0.0239304 -0.0543852 0.998233   
     length 1.87018  
     axis -90 -7.62852e-016 -20   XYZ
    dof rx rz
    limits (-45.0 90.0)
           (-20.0 70.0)
  end
  begin
     id 10 
     name rtoes
     direction -1.53584e-011 -4.2242e-011 1   
     length 0.951568   
     axis -90 -7.62852e-016 -20   XYZ
    dof rx
    limits (-90.0 20.0)
  end
  begin
     id 11 
     name lowerback
     direction 0.00322089 0.999033 0.0438587   
     length 2.07568   
     axis 0 0 0   XYZ
    dof rx ry rz
    limits (-20.0 45.0)
           (-30.0 30.0)
           (-30.0 30.0)
  end
  begin
     id 12 
     name upperback
     direction -0.00321932 0.999732 -0.0229403   
     length 2.06253   
     axis 0 0 0   XYZ
    dof rx ry rz
    limits (-20.0 45.0)
           (-30.0 30.0)
           (-30.0 30.0)
  end
  begin
     id 13 
     name thorax
     direction -0.00537537 0.998955 -0.0453918   
     length 2.06975   
     axis 0 0 0   XYZ
    dof rx ry rz
    limits (-20.0 45.0)
           (-30.0 30.0)
           (-30.0 30.0)
  end
  begin
     id 14 
     name lowerneck
     direction -0.00013604 0.994111 0.108363   
     length 1.50836   
     axis 0 0 0   XYZ
    dof rx ry rz
    limits (-20.0 45.0)
           (-30.0 30.0)
           (-30.0 30.0)
  end
  begin
     id 15 
     name upperneck
     direction 0.0397262 0.983859 -0.174482   
     length 1.53037   
     axis 0 0 0   XYZ
    dof rx ry rz
    limits (-20.0 45.0)
           (-30.0 30.0)
           (-30.0 30.0)
  end
  begin
     id 16
     name head
     direction 0.0109991 0.997082 -0.0755378  
     length 1.56928  
     axis 0 0 0   XYZ
    dof rx ry rz
    limits (-20.0 45.0)
           (-30.0 30.0)
           (-30.0 30.0)
  end
  begin
     id 17 
     name lclavicle
     direction 0.964749 0.254 -0.068874  
     length 3.26503  
     axis 0 0 0   XYZ
    dof ry rz
    limits (-20.0 10.0)
           (0.0 20.0)
  end
  begin
     id 18 
     name lhumerus
     direction 1 -4.48941e-011 -2.05079e-027   
     length 5.68236   
     axis 180 -30 -90   XYZ
    dof rx ry rz
    limits (-60.0 90.0)
           (-90.0 90.0)
           (-90.0 90.0)
  end
  begin
     id 19
     name lradius
     direction 1 -4.48956e-011 6.2882e-027   
     length 3.17112   
     axis 180 -30 -90   XYZ
    dof rx
    limits (-10.0 170.0)
  end
  begin
     id 20
     name lwrist
     direction 1 -4.49014e-011 1.73219e-026   
     length 1.58556   
     axis -1.04724e-014 90 90   XYZ
    dof ry
    limits (-180.0 0.0)
 end
  begin
     id 21 
     name lhand
     direction 1 -4.49312e-011 3.46438e-026   
     length 0.632691   
     axis -2.21057e-014 90 90   XYZ
    dof rx rz
    limits (-90.0 90.0)
           (-45.0 45.0)
  end
  begin
     id 22 
     name lfingers
     direction 1 -4.48894e-011 6.92876e-026   
     length 0.510091   
     axis -4.42114e-014 90 90   XYZ
    dof rx
    limits (0.0 90.0)
  end
  begin
     id 23
     name lthumb
     direction 0.707107 -6.34705e-011 0.707107   
     length 0.732392   
     axis -90 45 2.85299e-015   XYZ
    dof rx rz
    limits (-45.0 45.0)
           (-45.0 45.0)
  end
  begin
     id 24 
     name rclavicle
     direction -0.954374 0.280496 -0.102435   
     length 3.25419  
     axis 0 0 0   XYZ 
    dof ry rz
    limits (-10.0 20.0)
           (-20.0 0.0)
  end
  begin
     id 25 
     name rhumerus
     direction -1 -4.48994e-011 -1.07204e-017  
     length 5.8712   
     axis 180 30 90   XYZ
    dof rx ry rz
    limits (-90.0 60.0)
           (-90.0 90.0)
           (-90.0 90.0)
  end
  begin
     id 26 
     name rradius
     direction -1 -4.48972e-011 5.89292e-027   
     length 3.37589   
     axis 180 30 90   XYZ
    dof rx
    limits (-10.0 170.0)
  end
  begin
     id 27 
     name rwrist
     direction -1 -4.48942e-011 1.73219e-026   
     length 1.68794   
     axis -1.04724e-014 -90 -90   XYZ
    dof ry
    limits (-180.0 0.0)
  end
  begin
     id 28
     name rhand
     direction -1 -4.48514e-011 3.46438e-026   
     length 0.603257   
     axis -2.21057e-014 -90 -90   XYZ
    dof rx rz
    limits (-90.0 90.0)
           (-45.0 45.0)
  end
  begin
     id 29
     name rfingers
     direction -1 -4.50028e-011 6.92876e-026   
     length 0.486362   
     axis -4.42114e-014 -90 -90   XYZ
    dof rx
    limits (0.0 90.0)
  end
  begin
     id 30
     name rthumb
     direction -0.707107 -6.34926e-011 0.707107   
     length 0.698321   
     axis -90 -45 -2.85299e-015   XYZ
    dof rx rz
    limits (-45.0 45.0)
           (-45.0 45.0)
  end
:hierarchy
  begin
    root lhipjoint rhipjoint lowerback
    lhipjoint lfemur
    lfemur ltibia
    ltibia lfoot
    lfoot ltoes
    rhipjoint rfemur
    rfemur rtibia
    rtibia rfoot
    rfoot rtoes
    lowerback upperback
    upperback thorax
    thorax lowerneck lclavicle rclavicle
    lowerneck upperneck
    upperneck head
    lclavicle lhumerus
    lhumerus lradius
    lradius lwrist
    lwrist lhand lthumb
    lhand lfingers
    rclavicle rhumerus
    rhumerus rradius
    rradius rwrist
    rwrist rhand rthumb
    rhand rfingers
  end

#!OML:ASF I:\Segmentation\Patient Classification 1\Patient 1\Session 1\Patient1.ASF
:FULLY-SPECIFIED
:DEGREES
1499
root 20.3867 15.814 -0.615589 -531.493 -100.966 162.504
lowerback 12.0436 4.86312 0.482624
upperback 12.7749 5.83965 -2.2009
thorax 7.17117 2.77908 -2.95269
lowerneck -0.646098 -0.186175 3.08344
upperneck -3.29938 -0.257608 0.0762796
head -0.905209 -0.173847 -0.48341
rclavicle 4.37326e-015 1.11319e-014
rhumerus 64.4202 -10.8779 -29.4593
rradius 108.365
rwrist -29.593
rhand -13.4219 34.3045
rfingers 7.12502
rthumb 12.6865 4.70982
lclavicle 4.37326e-015 1.11319e-014
lhumerus -2.84893 -29.927 82.6648
lradius 50.4978
lwrist 25.6092
lhand -17.5544 42.6557
lfingers 7.12502
lthumb 8.70035 72.4564
rfemur -38.9124 -16.5571 20.0381
rtibia 60.512
rfoot -5.23607 3.18535
rtoes 47.7866
lfemur -43.3378 7.59024 -17.5291
ltibia 62.854
lfoot -9.32064 0.00473165
ltoes 1.2845
1500
root 20.3873 15.812 -0.614072 -531.232 -100.888 162.238
lowerback 12.0046 4.85847 0.440044
upperback 12.7651 5.83114 -2.17691
thorax 7.17274 2.77002 -2.90081
lowerneck -0.583987 -0.172925 3.04721
upperneck -3.30148 -0.237047 0.0914459
head -0.915775 -0.163242 -0.472909
rclavicle -8.70677e-014 3.89618e-014
rhumerus 64.3729 -10.8632 -29.4776
rradius 108.406
rwrist -29.619
rhand -13.2997 34.2571
rfingers 7.12502
rthumb 12.8042 4.66978
lclavicle -8.70677e-014 3.89618e-014
lhumerus -2.91868 -29.9094 82.671
lradius 50.5298
lwrist 25.597
lhand -17.5724 42.6899
lfingers 7.12502
lthumb 8.68302 72.4913
rfemur -38.9219 -16.4328 20.0776
rtibia 60.5031
rfoot -5.26795 3.20111
rtoes 47.8275
lfemur -43.3454 7.65047 -17.4914
ltibia 62.8798
lfoot -9.32968 0.0197857
ltoes 1.42634
1501
root 20.3882 15.8089 -0.612969 -530.898 -100.818 161.906
lowerback 11.9731 4.84624 0.41498
upperback 12.7503 5.81388 -2.15368
thorax 7.16611 2.75817 -2.85966
lowerneck -0.534762 -0.156445 3.01115
upperneck -3.28635 -0.212717 0.10946
head -0.91878 -0.150557 -0.461536
rclavicle 2.78299e-015 9.54166e-015
rhumerus 64.3266 -10.8478 -29.501
rradius 108.434
rwrist -29.6322
rhand -13.1949 34.2234
rfingers 7.12502
rthumb 12.9053 4.64249
lclavicle 2.78299e-015 9.54166e-015
lhumerus -2.9897 -29.882 82.6718
lradius 50.5564
lwrist 25.5921
lhand -17.5537 42.6973
lfingers 7.12502
lthumb 8.70106 72.4979
rfemur -38.9421 -16.2997 20.1332
rtibia 60.5004
rfoot -5.30961 3.21289
rtoes 47.8843
lfemur -43.3709 7.70686 -17.4421
ltibia 62.9127
lfoot -9.33419 0.0477846
ltoes 1.38263
1502
root 20.3893 15.8056 -0.612259 -530.534 -100.76 161.542
lowerback 11.9508 4.82653 0.4064
upperback 12.7415 5.78719 -2.13367
thorax 7.16304 2.74297 -2.83109
lowerneck -0.521258 -0.142501 2.97014
upperneck -3.25723 -0.193092 0.136293
head -0.911469 -0.140111 -0.446516
rclavicle 4.01545e-014 -7.95139e-015
rhumerus 64.2838 -10.8435 -29.5288
rradius 108.445
rwrist -29.6314
rhand -13.1075 34.2237
rfingers 7.12502
rthumb 12.9896 4.64804
lclavicle 4.01545e-014 -7.95139e-015
lhumerus -3.05546 -29.8459 82.6582
lradius 50.5949
lwrist 25.5831
lhand -17.5215 42.696
lfingers 7.12502
lthumb 8.73209 72.4954
rfemur -38.9621 -16.1713 20.1956
rtibia 60.5008
rfoot -5.3598 3.23003
rtoes 47.9417
lfemur -43.4007 7.7517 -17.3851
ltibia 62.9459
lfoot -9.34172 0.0875299
ltoes 1.16117
1503
root 20.3904 15.8029 -0.611889 -530.188 -100.713 161.193
lowerback 11.9344 4.80152 0.404967
upperback 12.7428 5.75322 -2.11859
thorax 7.16913 2.7247 -2.81146
lowerneck -0.537132 -0.137244 2.92486
upperneck -3.23385 -0.186068 0.171194
head -0.90116 -0.13613 -0.428207
rclavicle 8.38871e-014 -1.35174e-014
rhumerus 64.2395 -10.8527 -29.5622
rradius 108.445
rwrist -29.6238
rhand -13.0371 34.2573
rfingers 7.12502
rthumb 13.0575 4.68601
lclavicle 8.38871e-014 -1.35174e-014
lhumerus -3.13047 -29.8002 82.6302
lradius 50.6659
lwrist 25.563
lhand -17.5122 42.7103
lfingers 7.12502
lthumb 8.74104 72.5093
rfemur -38.9764 -16.0585 20.2557
rtibia 60.5018
rfoot -5.4132 3.2556
rtoes 47.9799
lfemur -43.4234 7.77658 -17.3262
ltibia 62.9719
lfoot -9.35712 0.133896
ltoes 0.865432
1504
root 20.3912 15.8013 -0.611732 -529.89 -100.669 160.893
lowerback 11.9199 4.77463 0.398357
upperback 12.7463 5.71636 -2.1103
thorax 7.17683 2.70482 -2.79613
lowerneck -0.553186 -0.141414 2.89165
upperneck -3.23178 -0.191632 0.203481
head -0.897665 -0.138878 -0.412691
rclavicle 6.91771e-014 -5.80451e-014
rhumerus 64.1811 -10.8639 -29.6032
rradius 108.451
rwrist -29.6099
rhand -12.9883 34.3075
rfingers 7.12502
rthumb 13.1045 4.73924
lclavicle 6.91771e-014 -5.80451e-014
lhumerus -3.24218 -29.745 82.5974
lradius 50.7762
lwrist 25.5301
lhand -17.5514 42.7555
lfingers 7.12502
lthumb 8.70326 72.5561
rfemur -38.9868 -15.9594 20.3067
rtibia 60.5017
rfoot -5.46517 3.27875
rtoes 47.9865
lfemur -43.4348 7.78015 -17.2698
ltibia 62.9869
lfoot -9.38326 0.182442
ltoes 0.616711
1505
root 20.3919 15.8008 -0.611638 -529.662 -100.617 160.666
lowerback 11.9058 4.74885 0.373471
upperback 12.7459 5.68007 -2.109
thorax 7.17874 2.68408 -2.77835
lowerneck -0.554713 -0.151914 2.87588
upperneck -3.25223 -0.205165 0.228494
head -0.90379 -0.146064 -0.402337
rclavicle 2.38542e-014 -3.97569e-015
rhumerus 64.1043 -10.8689 -29.6516
rradius 108.473
rwrist -29.5847
rhand -12.9586 34.3487
rfingers 7.12502
rthumb 13.1331 4.7823
lclavicle 2.38542e-014 -3.97569e-015
lhumerus -3.39338 -29.6811 82.5691
lradius 50.9127
lwrist 25.4921
lhand -17.6483 42.8485
lfingers 7.12502
lthumb 8.60974 72.653
rfemur -38.9957 -15.8638 20.3429
rtibia 60.4998
rfoot -5.51233 3.28737
rtoes 47.9626
lfemur -43.4346 7.77365 -17.2233
ltibia 62.9927
lfoot -9.41863 0.230787
ltoes 0.449446
1506
root 20.3924 15.8012 -0.611556 -529.53 -100.554 160.533
lowerback 11.8908 4.72499 0.320783
upperback 12.7441 5.64461 -2.11321
thorax 7.17725 2.66167 -2.75119
lowerneck -0.56126 -0.166046 2.84976
upperneck -3.27456 -0.223431 0.267671
head -0.909625 -0.15569 -0.385879
rclavicle -1.90833e-014 -1.03368e-014
rhumerus 64.0177 -10.876 -29.7013
rradius 108.505
rwrist -29.5545
rhand -12.9386 34.3651
rfingers 7.12502
rthumb 13.1523 4.79988
lclavicle -1.90833e-014 -1.03368e-014
lhumerus -3.55345 -29.6122 82.5467
lradius 51.0484
lwrist 25.4651
lhand -17.7947 42.9886
lfingers 7.12502
lthumb 8.46851 72.7988
rfemur -39.0019 -15.7652 20.3583
rtibia 60.496
rfoot -5.54852 3.27965
rtoes 47.9301
lfemur -43.4236 7.76551 -17.1925
ltibia 62.9947
lfoot -9.461 0.276817
ltoes 0.382017
1507
root 20.3929 15.8019 -0.611573 -529.487 -100.482 160.488
lowerback 11.8755 4.69905 0.240727
upperback 12.7458 5.60424 -2.11943
thorax 7.17689 2.63444 -2.71078
lowerneck -0.595596 -0.178246 2.77704
upperneck -3.27013 -0.239379 0.347905
head -0.902136 -0.163677 -0.349032
rclavicle -5.04913e-014 4.29375e-014
rhumerus 63.941 -10.8943 -29.7469
rradius 108.533
rwrist -29.5388
rhand -12.9095 34.3597
rfingers 7.12502
rthumb 13.1805 4.79633
lclavicle -5.04913e-014 4.29375e-014
lhumerus -3.69271 -29.5331 82.5315
lradius 51.1584
lwrist 25.4569
lhand -17.9824 43.1422
lfingers 7.12502
lthumb 8.28732 72.9597
rfemur -39.0012 -15.6636 20.3538
rtibia 60.4906
rfoot -5.57323 3.26044
rtoes 47.9163
lfemur -43.4024 7.75586 -17.1746
ltibia 62.9986
lfoot -9.50973 0.319006
ltoes 0.450327
1508
root 20.3935 15.8022 -0.611759 -529.494 -100.411 160.483
lowerback 11.8622 4.66311 0.142679
upperback 12.7546 5.54868 -2.12118
thorax 7.18023 2.59761 -2.655
lowerneck -0.650546 -0.182004 2.64389
upperneck -3.23787 -0.244018 0.467764
head -0.882096 -0.165292 -0.29013
rclavicle -1.47101e-014 1.74931e-014
rhumerus 63.8994 -10.9205 -29.7875
rradius 108.544
rwrist -29.5586
rhand -12.8526 34.3484
rfingers 7.12502
rthumb 13.2353 4.78856
lclavicle -1.47101e-014 1.74931e-014
lhumerus -3.8071 -29.421 82.531
lradius 51.2398
lwrist 25.4624
lhand -18.2073 43.2675
lfingers 7.12502
lthumb 8.0703 73.0934
rfemur -38.9893 -15.5631 20.3382
rtibia 60.4848
rfoot -5.59338 3.23969
rtoes 47.9356
lfemur -43.3722 7.74396 -17.163
ltibia 63.0073
lfoot -9.5609 0.360113
ltoes 0.59842
1509
root 20.394 15.8019 -0.612109 -529.496 -100.346 160.462
lowerback 11.8526 4.61373 0.0421249
upperback 12.7708 5.47424 -2.11393
thorax 7.18776 2.55039 -2.58748
lowerneck -0.700017 -0.175952 2.4714
upperneck -3.20269 -0.234973 0.599922
head -0.861853 -0.159641 -0.221233
rclavicle -1.11319e-014 1.51076e-014
rhumerus 63.8949 -10.9477 -29.8208
rradius 108.54
rwrist -29.6221
rhand -12.781 34.3563
rfingers 7.12502
rthumb 13.3043 4.80095
lclavicle -1.11319e-014 1.51076e-014
lhumerus -3.91333 -29.2643 82.5502
lradius 51.3104
lwrist 25.4713
lhand -18.4497 43.3471
lfingers 7.12502
lthumb 7.83632 73.1818
rfemur -38.9633 -15.465 20.3229
rtibia 60.4794
rfoot -5.61498 3.23054
rtoes 47.9845
lfemur -43.3337 7.72817 -17.1488
ltibia 63.0205
lfoot -9.61033 0.405157
ltoes 0.715368
1510
root 20.3944 15.8012 -0.612519 -529.436 -100.292 160.366
lowerback 11.8502 4.55491 -0.0388791
upperback 12.7902 5.38802 -2.10092
thorax 7.19591 2.49851 -2.52444
lowerneck -0.721449 -0.163294 2.31556
upperneck -3.18658 -0.216465 0.707782
head -0.852367 -0.149453 -0.162755
rclavicle -6.36111e-015 1.51076e-014
rhumerus 63.8965 -10.975 -29.8457
rradius 108.531
rwrist -29.7124
rhand -12.734 34.4045
rfingers 7.12502
rthumb 13.3496 4.85219
lclavicle -6.36111e-015 1.51076e-014
lhumerus -4.03232 -29.0837 82.5806
lradius 51.3926
lwrist 25.4802
lhand -18.6661 43.384
lfingers 7.12502
lthumb 7.62743 73.2264
rfemur -38.9228 -15.37 20.3205
rtibia 60.4733
rfoot -5.64106 3.23735
rtoes 48.0407
lfemur -43.2883 7.70786 -17.1206
ltibia 63.0365
lfoot -9.65797 0.454295
ltoes 0.749403
